<svg xmlns="http://www.w3.org/2000/svg" viewBox="3 7 55 35">
  <defs>
    <linearGradient id="g" x1="3.91" y1="23.9" x2="40.47" y2="23.9" gradientUnits="userSpaceOnUse">
      <stop offset="0" stop-color="#00b7fb"/>
      <stop offset="1" stop-color="#1ded54"/>
    </linearGradient>
  </defs>
  <path fill="url(#g)" d="M36.57,39.58h-6.02c0-5.64-2.24-11.01-6.27-14.99-1.42,2.44-2.4,5.06-3.03,7.8-.53,2.37-.77,4.71-.77,7.18h-6.02c-.01-3.12.33-6.19,1.07-9.22.81-3.31,2.08-6.42,3.86-9.37-2.15-1.15-4.43-1.92-6.93-2.28v20.88s-6.03,0-6.03,0V12.46s3.23,0,3.23,0c4.7-.01,9.26,1.28,13.33,3.63,1.93-2.18,4.08-4.05,6.46-5.65,1.3-.88,2.61-1.6,4.08-2.22,3.94,1.62,7.72,4.66,10.59,7.87,4.06-2.35,8.6-3.63,13.28-3.62h3.27s0,27.12,0,27.12h-6.02s0-20.89,0-20.89c-2.44.36-4.78,1.11-6.92,2.28,1.91,3.17,3.23,6.54,4.02,10.12.62,2.79.9,5.58.9,8.48h-6.02c0-2.6-.28-5.14-.89-7.67-.63-2.58-1.58-5.01-2.92-7.31-3.99,3.97-6.25,9.3-6.25,14.99ZM33.55,27.14c1.47-2.79,3.33-5.27,5.68-7.44-1.67-1.85-3.57-3.42-5.68-4.75-2.12,1.31-4.02,2.9-5.69,4.73,2.33,2.17,4.2,4.63,5.68,7.46Z"/>
</svg>
